<!DOCTYPE svg PUBLIC "-//W3C//DTD SVG 1.1//EN" "http://www.w3.org/Graphics/SVG/1.1/DTD/svg11.dtd">
<svg version="1.1" xmlns="http://www.w3.org/2000/svg" xmlns:xlink="http://www.w3.org/1999/xlink" x="0px" y="0px" width="1024px"
	 height="768px">
				<path id="cloud" opacity="0.9" fill="#FFFFFF" d="M0.698,693.668c0,0-1.022-485.75-1.022-494.151
		c0-21.596,17.405-39.103,38.875-39.103c13.75,0,25.822,7.186,32.733,18.02c4.731-16.229,19.634-28.083,37.298-28.083
		c21.444,0,38.831,17.464,38.873,39.024c7.008-6.885,16.588-11.135,27.157-11.135c16.706,0,30.945,10.601,36.445,25.477
		c5.5-14.876,19.74-25.477,36.446-25.477c17.396,0,32.121,11.497,37.083,27.347c6.931-6.442,16.192-10.383,26.374-10.383
		c10.02,0,19.152,3.815,26.045,10.077c3.795-17.595,19.355-30.779,37.984-30.779c14.824,0,27.709,8.35,34.266,20.626
		c2.17-19.529,18.63-34.715,38.624-34.715c13.749,0,25.821,7.186,32.734,18.02c4.731-16.229,19.634-28.083,37.297-28.083
		c21.445,0,38.831,17.464,38.874,39.024c7.007-6.885,16.588-11.135,27.156-11.135c16.706,0,30.945,10.601,36.446,25.477
		c5.5-14.876,19.74-25.477,36.444-25.477c17.397,0,32.122,11.497,37.084,27.347c6.931-6.442,16.193-10.383,26.374-10.383
		c10.021,0,19.152,3.815,26.045,10.077c3.795-17.595,19.354-30.779,37.984-30.779c11.998,0,22.722,5.471,29.855,14.064
		c4.709-16.265,19.63-28.153,37.319-28.153c13.748,0,25.82,7.186,32.732,18.02c4.73-16.229,19.634-28.083,37.298-28.083
		c21.444,0,38.832,17.464,38.873,39.024c7.007-6.885,16.588-11.135,27.158-11.135c16.705,0,30.944,10.601,36.444,25.477v489.182
		L0.698,693.668z"/>
</svg>