<!DOCTYPE svg PUBLIC "-//W3C//DTD SVG 1.1//EN" "http://www.w3.org/Graphics/SVG/1.1/DTD/svg11.dtd">
<svg version="1.1" xmlns="http://www.w3.org/2000/svg" xmlns:xlink="http://www.w3.org/1999/xlink" x="0px" y="0px"
	 width="192.377px" height="161.832px" viewBox="0 0 192.377 161.832" enable-background="new 0 0 192.377 161.832"
	 xml:space="preserve">
<g id="hombres">
	<g id="logo_id_hombres">
		
			<path fill-rule="evenodd" clip-rule="evenodd" fill="none" stroke="#1EAAD6" stroke-width="2.8638" stroke-linejoin="round" stroke-miterlimit="10" d="
			M30.238,135.786c-1.793-1.856-5.104-2.193-6.797-4.152c3.527-5.159,0.287-17.083,4.154-21.901
			c-3.742-3.727-4.297-12.063-1.51-17.367c-3.84-7.157,3.463-16.094,12.082-14.35c0.576-0.682,1.359-1.156,1.133-2.642"/>
		
			<path fill-rule="evenodd" clip-rule="evenodd" fill="none" stroke="#1EAAD6" stroke-width="2.8638" stroke-linejoin="round" stroke-miterlimit="10" d="
			M43.832,135.786c0.477-3.933,0.51-8.19-0.756-11.327c-0.756,0-1.51,0-2.266,0c-1.408,2.501-0.486,6.641-0.377,9.816"/>
		
			<path fill-rule="evenodd" clip-rule="evenodd" fill="none" stroke="#1EAAD6" stroke-width="8.0188" stroke-linejoin="round" stroke-miterlimit="10" d="
			M29.119,16.471c7.439-2.692,14.602-4.887,16.613-12.461c1.17,2.813-0.514,6.025-1.133,8.307c6.256-0.666,9.025-4.818,12.459-8.307
			c0.494,1.675-2.844,5.93-3.775,8.684c6.807,1.142,12.125-2.475,16.615-4.908c-1.471,4.193-5.174,6.155-8.307,8.686
			c5.662,4.406,13.107,7.027,14.725,15.48c-1.988-1.534-3.658-3.39-6.041-4.531c0.076,2.445,3.166,5.139,3.4,8.685
			c1.594,0.009,2.438-0.73,3.773,0c2.621,3.66,0.377,10.479-3.773,10.95c-3.027,14.971-12.861,23.139-26.057,27.941
			c1.621,1.274,4.58,1.211,4.531,4.153c8.771-0.827,11.408,9.454,7.176,15.103c0.08,2.408,0.746,4.098,0.754,6.42
			c0.012,3.051-1.691,5.805-1.887,8.684c-0.174,2.577,0.939,7.062,1.51,10.57c0.848,5.234,2.877,8.83,4.531,12.84
			c-1.246,0.768-2.576,1.453-3.398,2.643"/>
		<path fill="#1EAAD6" d="M117.756,12.588H0v149.244h117.756c41.215,0,74.621-33.41,74.621-74.621
			C192.377,45.998,158.971,12.588,117.756,12.588z"/>
		<path fill="#0B5689" d="M115.102,21.771H69.115v130.877h45.986c36.143,0,65.439-29.297,65.439-65.438
			C180.541,51.069,151.244,21.771,115.102,21.771z"/>
		<rect x="9.963" y="21.771" fill-rule="evenodd" clip-rule="evenodd" fill="#0B5689" width="42.109" height="128.953"/>
		<path fill-rule="evenodd" clip-rule="evenodd" fill="#FFFFFF" d="M53.283,12.693c6.807,1.142,12.125-2.475,16.615-4.908
			c-1.471,4.193-5.174,6.155-8.307,8.686c5.662,4.406,13.107,7.027,14.725,15.48c-1.988-1.534-3.658-3.39-6.041-4.531
			c0.076,2.445,3.166,5.139,3.4,8.685c1.594,0.009,2.438-0.73,3.773,0c2.621,3.66,0.377,10.479-3.773,10.95
			c-3.027,14.971-12.861,23.139-26.057,27.941c1.621,1.274,4.58,1.211,4.531,4.153c8.771-0.827,11.408,9.454,7.176,15.103
			c0.08,2.408,0.746,4.098,0.754,6.42c0.012,3.051-1.691,5.805-1.887,8.684c-0.174,2.577,0.939,7.062,1.51,10.57
			c0.848,5.234,2.877,8.83,4.531,12.84c-1.246,0.768-2.576,1.453-3.398,2.643c0.178,2.311,0.84,5.395,0,7.553
			c2.93,0.977,6.66,1.487,9.439,3.396c1.006,0.695,3.551,3.309,3.4,4.534c-0.35,2.773-7.137,2.627-10.574,2.265
			c-6.133-0.649-14.205-4.465-8.684-9.441c-0.373-2.647-1.637-4.404-2.268-6.797c-2.869,0.102-4.723-0.813-7.174-1.132
			c0.479-3.933,0.51-8.19-0.754-11.327c-0.756,0-1.512,0-2.266,0c-1.408,2.501-0.486,6.641-0.379,9.816
			c-2.648,1.128-1.357,6.193-3.02,8.309c0.484,1.529,1.789,2.236,1.889,4.152c-3.047,4.695-16.861,7.279-21.523,2.266
			c2.145-4.525,6.961-6.381,12.838-7.174c0.605-1.638-0.67-3.577-0.379-6.042c-1.791-1.856-5.104-2.193-6.795-4.152
			c3.525-5.159,0.287-17.083,4.152-21.901c-3.742-3.727-4.295-12.063-1.51-17.367c-3.838-7.157,3.463-16.094,12.082-14.35
			c0.576-0.682,1.361-1.156,1.135-2.642C25.496,73.08,13.324,68.008,9.484,54.605c-1.279,0.106-2.168,0.602-3.775,0.379
			c-4.852-2.541-4.535-14.23,3.398-13.217c-2.242-7.921,8.561-15.75-0.756-18.123c0.303-0.956,1.555-0.964,2.266-1.511
			c0.18-1.814-2.307-0.966-1.887-3.021c1.553,0.459,2.975,1.05,4.529,1.51c0.834-0.047,0.16-1.602,0.379-2.266
			c3,6.281,9.342,0.333,15.48-1.887c7.439-2.692,14.602-4.887,16.613-12.461c1.17,2.813-0.514,6.025-1.133,8.307
			c6.256-0.666,9.025-4.818,12.459-8.307C57.553,5.685,54.215,9.939,53.283,12.693z"/>
		<g>
			<path fill-rule="evenodd" clip-rule="evenodd" fill="#FFFFFF" d="M148.6,83.563c-0.803-4.171,0.836-8.569,0.326-12.322
				c-1.709-12.573-12.012-21.688-25.617-21.076c-9.822,0.443-18.096,7.092-21.398,14.592c-0.967,2.189-3.414,9.392,0.322,9.402
				c2.604,0.009,2.619-4.77,3.566-7.133c2.492-6.205,9.352-11.992,17.836-12.321c12.17-0.473,20.852,8.017,21.074,20.104
				c0.123,6.597-2.525,16.729,5.838,14.59C151.982,85.661,149.141,86.359,148.6,83.563z M109.367,67.025
				c-1.65,3.354-1.885,9.076-4.865,10.376c-1.709,0.745-5.26-0.56-5.836,1.945c-1.117,4.867,8.076,2.229,9.404,1.297
				c3.361-2.36,3.299-7.849,5.188-11.673c5.477-11.09,23.17-7.824,23.994,5.838c0.203,3.363-0.748,6.182-0.648,9.401
				c0.197,6.437,3.025,9.808,8.105,11.998c0.83,0.356,5.863,3.112,5.514-1.296c-0.186-2.349-4.58-2.634-6.16-3.893
				c-5.039-4.01-1.373-12.572-2.596-19.455c-1.498-8.438-9.824-14.854-19.129-13.618C115.908,58.8,111.889,61.902,109.367,67.025z
				 M125.578,72.538c-1.102-0.022-2.262-0.101-2.592,0.647c-1.123,3.303-1.186,6.215-2.596,9.08
				c-2.406,4.891-7.053,7.677-13.617,9.402c-2.582,0.68-9.891,0.908-7.781,4.865c3.154,1.618,7.27-0.074,10.375-0.975
				c10.279-2.982,18.008-9.776,17.186-22.049C126.084,73.329,125.762,73.005,125.578,72.538z M140.818,98.152
				c-2.77-1.281-5.168-5.219-7.457-4.863c-1.428,0.223-1.973,1.924-1.945,2.595c0.088,2.244,4.635,4.966,7.133,6.161
				c3.141,1.5,6.975,3.166,10.051,1.945C150.285,99.508,144.678,99.939,140.818,98.152z M140.17,105.936
				c-2.705-1.072-5.371-3.071-7.457-3.891c-6.139-2.412-12.545,1.305-18.158,2.918c-3.281,0.943-12.668,1.637-12.322,4.864
				c0.404,3.755,10.68,0.335,12.971-0.325c4.537-1.306,9.168-4.11,13.293-3.891c7.102,0.377,10.955,8.748,18.158,5.188
				C147.854,107.375,143.109,107.1,140.17,105.936z M115.527,111.771c-1.111,0.318-9.482,1.572-9.078,4.541
				c0.455,3.347,6.82,0.898,10.051,0c3.498-0.977,7.766-3.11,11.35-2.92c1.975,0.104,4.701,1.587,7.781,2.92
				c2.195,0.948,6.689,3.506,6.811-0.325c0.088-2.839-12.457-7.088-15.889-6.81C122.492,109.506,119.971,110.497,115.527,111.771z
				 M127.85,116.635c-5.979-0.463-17.881,2.82-14.916,6.162c4.797,1.859,9.645-1.996,14.592-1.622
				c2.959,0.224,4.629,2.425,7.781,2.271C139.301,120.104,132.693,117.012,127.85,116.635z"/>
			<path fill-rule="evenodd" clip-rule="evenodd" fill="#FFFFFF" d="M150.547,89.398c-8.363,2.139-5.715-7.993-5.838-14.59
				c-0.223-12.088-8.904-20.577-21.074-20.104c-8.484,0.329-15.344,6.116-17.836,12.321c-0.947,2.363-0.963,7.142-3.566,7.133
				c-3.736-0.011-1.289-7.213-0.322-9.402c3.303-7.5,11.576-14.148,21.398-14.592c13.605-0.612,23.908,8.503,25.617,21.076
				c0.51,3.753-1.129,8.151-0.326,12.322C149.141,86.359,151.982,85.661,150.547,89.398z"/>
			<path fill-rule="evenodd" clip-rule="evenodd" fill="#FFFFFF" d="M122.338,57.946c9.305-1.235,17.631,5.181,19.129,13.618
				c1.223,6.883-2.443,15.445,2.596,19.455c1.58,1.259,5.975,1.544,6.16,3.893c0.35,4.408-4.684,1.652-5.514,1.296
				c-5.08-2.19-7.908-5.562-8.105-11.998c-0.1-3.22,0.852-6.038,0.648-9.401c-0.824-13.662-18.518-16.928-23.994-5.838
				c-1.889,3.824-1.826,9.313-5.188,11.673c-1.328,0.933-10.521,3.57-9.404-1.297c0.576-2.505,4.127-1.2,5.836-1.945
				c2.98-1.3,3.215-7.022,4.865-10.376C111.889,61.902,115.908,58.8,122.338,57.946z"/>
			<path fill-rule="evenodd" clip-rule="evenodd" fill="#FFFFFF" d="M98.018,88.427c0-0.542,0-1.082,0-1.622
				c1.76-1.779,8.908-1.688,11.674-3.566c3.949-2.688,4.152-8.779,6.16-12.97c1.629-3.4,5.494-5.874,10.377-5.188
				c11.986,1.683,7.928,18.989,3.891,25.615c-5.053,8.289-13.174,10.372-22.049,12.646c-3.678,0.943-8.156,2.475-8.107-0.972
				c0.035-2.481,5.488-3.053,8.756-3.891c9.035-2.318,14.154-4.305,18.156-11.998c2.229-4.278,5.727-15.829-1.297-16.86
				c-6.195-0.911-5.592,4.888-7.133,9.079c-2.422,6.59-10.441,12.246-17.51,11.348C100.262,89.961,99.074,90.154,98.018,88.427z"/>
			<path fill-rule="evenodd" clip-rule="evenodd" fill="#FFFFFF" d="M126.553,73.51c0.822,12.272-6.906,19.066-17.186,22.049
				c-3.105,0.9-7.221,2.593-10.375,0.975c-2.109-3.957,5.199-4.186,7.781-4.865c6.564-1.726,11.211-4.512,13.617-9.402
				c1.41-2.865,1.473-5.777,2.596-9.08c0.33-0.748,1.49-0.67,2.592-0.647C125.762,73.005,126.084,73.329,126.553,73.51z"/>
			<path fill-rule="evenodd" clip-rule="evenodd" fill="#FFFFFF" d="M148.6,103.99c-3.076,1.221-6.91-0.445-10.051-1.945
				c-2.498-1.195-7.045-3.917-7.133-6.161c-0.027-0.671,0.518-2.372,1.945-2.595c2.289-0.355,4.688,3.582,7.457,4.863
				C144.678,99.939,150.285,99.508,148.6,103.99z"/>
			<path fill-rule="evenodd" clip-rule="evenodd" fill="#FFFFFF" d="M146.654,110.799c-7.203,3.561-11.057-4.811-18.158-5.188
				c-4.125-0.22-8.756,2.585-13.293,3.891c-2.291,0.66-12.566,4.08-12.971,0.325c-0.346-3.228,9.041-3.921,12.322-4.864
				c5.613-1.613,12.02-5.33,18.158-2.918c2.086,0.819,4.752,2.818,7.457,3.891C143.109,107.1,147.854,107.375,146.654,110.799z"/>
			<path fill-rule="evenodd" clip-rule="evenodd" fill="#FFFFFF" d="M126.553,109.178c3.432-0.278,15.977,3.971,15.889,6.81
				c-0.121,3.831-4.615,1.273-6.811,0.325c-3.08-1.333-5.807-2.815-7.781-2.92c-3.584-0.19-7.852,1.943-11.35,2.92
				c-3.23,0.898-9.596,3.347-10.051,0c-0.404-2.969,7.967-4.223,9.078-4.541C119.971,110.497,122.492,109.506,126.553,109.178z"/>
			<path fill-rule="evenodd" clip-rule="evenodd" fill="#FFFFFF" d="M135.307,123.445c-3.152,0.154-4.822-2.047-7.781-2.271
				c-4.947-0.374-9.795,3.481-14.592,1.622c-2.965-3.342,8.938-6.625,14.916-6.162C132.693,117.012,139.301,120.104,135.307,123.445
				z"/>
		</g>
	</g>
</g>
<g id="mujeres">
	<g id="_x30_3_piso_1_">
		<g>
			<g>
				<defs>
					<path id="SVGID_166_" d="M-312.269,4.676V156.63c0,2.962,2.401,5.362,5.363,5.362h245.532c2.963,0,5.363-2.4,5.363-5.362V4.676
						H-312.269z"/>
				</defs>
				<clipPath id="SVGID_1_">
					<use xlink:href="#SVGID_166_"  overflow="visible"/>
				</clipPath>
				<g clip-path="url(#SVGID_1_)">
					<g>
						<g>
							
								<rect x="-102.495" y="-49.116" transform="matrix(0.7071 -0.7071 0.7071 0.7071 -105.4538 -38.6797)" fill="#FFCE00" width="6.155" height="314.14"/>
						</g>
						<g>
							
								<rect x="-85.787" y="-49.115" transform="matrix(0.707 -0.7072 0.7072 0.707 -100.5752 -26.8634)" fill="#FFCE00" width="6.155" height="314.139"/>
						</g>
						<g>
							
								<rect x="-69.079" y="-49.116" transform="matrix(0.7069 -0.7073 0.7073 0.7069 -95.6942 -15.0447)" fill="#FFCE00" width="6.154" height="314.14"/>
						</g>
						<g>
							
								<rect x="-52.371" y="-49.116" transform="matrix(0.707 -0.7072 0.7072 0.707 -90.7854 -3.2324)" fill="#FFCE00" width="6.155" height="314.14"/>
						</g>
						<g>
							
								<rect x="-35.663" y="-49.115" transform="matrix(0.7071 -0.7071 0.7071 0.7071 -85.879 8.578)" fill="#FFCE00" width="6.155" height="314.139"/>
						</g>
						<g>
							
								<rect x="-18.955" y="-49.115" transform="matrix(0.707 -0.7072 0.7072 0.707 -80.9953 20.3993)" fill="#FFCE00" width="6.155" height="314.139"/>
						</g>
						<g>
							
								<rect x="-2.247" y="-49.116" transform="matrix(0.7069 -0.7073 0.7073 0.7069 -76.1175 32.2319)" fill="#FFCE00" width="6.153" height="314.14"/>
						</g>
						<g>
							
								<rect x="14.461" y="-49.116" transform="matrix(0.707 -0.7072 0.7072 0.707 -71.2055 44.0303)" fill="#FFCE00" width="6.155" height="314.14"/>
						</g>
						<g>
							
								<rect x="31.168" y="-49.115" transform="matrix(0.7071 -0.7071 0.7071 0.7071 -66.3046 55.8347)" fill="#FFCE00" width="6.155" height="314.139"/>
						</g>
						<g>
							
								<rect x="47.64" y="-49.116" transform="matrix(0.7069 -0.7073 0.7073 0.7069 -61.4894 67.5067)" fill="#FFCE00" width="6.154" height="314.14"/>
						</g>
					</g>
				</g>
			</g>
			<g>
				<defs>
					<path id="SVGID_168_" d="M-61.373-69.514h-245.532c-2.962,0-5.363,2.401-5.363,5.363V9.313h0.018
						c0.358,7.544,6.586,13.549,14.22,13.549c7.631,0,13.858-6.005,14.219-13.549h0.034c0.358,7.544,6.588,13.549,14.22,13.549
						c7.631,0,13.86-6.005,14.219-13.549h0.035c0.358,7.544,6.585,13.549,14.22,13.549c7.633,0,13.86-6.005,14.218-13.549h0.035
						c0.359,7.544,6.587,13.549,14.22,13.549c7.632,0,13.86-6.005,14.221-13.549h0.034c0.358,7.544,6.586,13.549,14.219,13.549
						c7.631,0,13.859-6.005,14.218-13.549h0.034c0.36,7.544,6.588,13.549,14.221,13.549s13.859-6.005,14.219-13.549h0.035
						c0.359,7.544,6.587,13.549,14.219,13.549s13.86-6.005,14.221-13.549h0.034c0.358,7.544,6.585,13.549,14.22,13.549
						c7.631,0,13.859-6.005,14.219-13.549h0.035c0.357,7.544,6.585,13.549,14.218,13.549s13.862-6.005,14.22-13.549h0.018V-64.15
						C-56.01-67.112-58.412-69.514-61.373-69.514z"/>
				</defs>
				<clipPath id="SVGID_2_">
					<use xlink:href="#SVGID_168_"  overflow="visible"/>
				</clipPath>
				<g clip-path="url(#SVGID_2_)">
					<g>
						<g>
							
								<rect x="-102.495" y="-123.751" transform="matrix(0.7072 -0.707 0.707 0.7072 -52.6678 -60.5348)" fill="#276103" width="6.155" height="314.139"/>
						</g>
						<g>
							
								<rect x="-85.786" y="-123.751" transform="matrix(0.7071 -0.7071 0.7071 0.7071 -47.7847 -48.7257)" fill="#276103" width="6.154" height="314.138"/>
						</g>
						<g>
							
								<rect x="-69.079" y="-123.752" transform="matrix(0.707 -0.7072 0.7072 0.707 -42.899 -36.9143)" fill="#276103" width="6.153" height="314.14"/>
						</g>
						<g>
							
								<rect x="-52.371" y="-123.751" transform="matrix(0.7071 -0.7071 0.7071 0.7071 -37.9975 -25.0974)" fill="#276103" width="6.154" height="314.139"/>
						</g>
						<g>
							
								<rect x="-35.662" y="-123.751" transform="matrix(0.7072 -0.707 0.707 0.7072 -33.0983 -13.2824)" fill="#276103" width="6.155" height="314.138"/>
						</g>
						<g>
							
								<rect x="-18.954" y="-123.751" transform="matrix(0.7071 -0.7071 0.7071 0.7071 -28.21 -1.4683)" fill="#276103" width="6.154" height="314.138"/>
						</g>
						<g>
							
								<rect x="-2.246" y="-123.751" transform="matrix(0.7069 -0.7073 0.7073 0.7069 -23.3217 10.3511)" fill="#276103" width="6.153" height="314.139"/>
						</g>
						<g>
							
								<rect x="14.461" y="-123.751" transform="matrix(0.7071 -0.7071 0.7071 0.7071 -18.4229 22.16)" fill="#276103" width="6.154" height="314.139"/>
						</g>
						<g>
							
								<rect x="31.169" y="-123.751" transform="matrix(0.7072 -0.707 0.707 0.7072 -13.5293 33.969)" fill="#276103" width="6.155" height="314.138"/>
						</g>
						<g>
							
								<rect x="47.641" y="-123.751" transform="matrix(0.707 -0.7072 0.7072 0.707 -8.7035 45.6279)" fill="#276103" width="6.153" height="314.139"/>
						</g>
					</g>
				</g>
			</g>
		</g>
	</g>
	<g>
		<g>
			<defs>
				<path id="SVGID_4746_" d="M358.252,4.516v151.955c0,2.961,2.401,5.361,5.362,5.361h245.533c2.962,0,5.362-2.4,5.362-5.361V4.516
					H358.252z"/>
			</defs>
			<clipPath id="SVGID_3_">
				<use xlink:href="#SVGID_4746_"  overflow="visible"/>
			</clipPath>
			<g clip-path="url(#SVGID_3_)">
				<g>
					<g>
						
							<rect x="300.697" y="-49.275" transform="matrix(0.7071 -0.7071 0.7071 0.7071 12.7512 246.3729)" fill="#FFCE00" width="6.154" height="314.139"/>
					</g>
				</g>
			</g>
		</g>
		<g>
			<defs>
				<path id="SVGID_4748_" d="M609.147-69.674H363.614c-2.961,0-5.362,2.401-5.362,5.363V9.153h0.018
					c0.357,7.544,6.586,13.549,14.22,13.549c7.631,0,13.858-6.005,14.217-13.549h0.035c0.358,7.544,6.587,13.549,14.22,13.549
					c7.632,0,13.86-6.005,14.22-13.549h0.034c0.359,7.544,6.585,13.549,14.22,13.549c7.633,0,13.86-6.005,14.218-13.549h0.035
					c0.359,7.544,6.588,13.549,14.221,13.549c7.631,0,13.859-6.005,14.22-13.549h0.035c0.357,7.544,6.585,13.549,14.218,13.549
					c7.632,0,13.859-6.005,14.218-13.549h0.035c0.36,7.544,6.587,13.549,14.22,13.549s13.86-6.005,14.219-13.549h0.035
					c0.359,7.544,6.588,13.549,14.219,13.549c7.632,0,13.86-6.005,14.221-13.549h0.035c0.357,7.544,6.585,13.549,14.219,13.549
					c7.632,0,13.859-6.005,14.219-13.549h0.035c0.357,7.544,6.585,13.549,14.218,13.549s13.862-6.005,14.22-13.549h0.018v-73.464
					C614.51-67.272,612.108-69.674,609.147-69.674z"/>
			</defs>
			<clipPath id="SVGID_4_">
				<use xlink:href="#SVGID_4748_"  overflow="visible"/>
			</clipPath>
			<g clip-path="url(#SVGID_4_)">
				<g>
					<g>
						
							<rect x="300.697" y="-123.911" transform="matrix(0.7071 -0.7071 0.7071 0.7071 65.5269 224.5124)" fill="#276103" width="6.154" height="314.138"/>
					</g>
				</g>
			</g>
		</g>
	</g>
</g>

</svg>
