<!DOCTYPE svg PUBLIC "-//W3C//DTD SVG 1.1//EN" "http://www.w3.org/Graphics/SVG/1.1/DTD/svg11.dtd">
<svg version="1.1" xmlns="http://www.w3.org/2000/svg" xmlns:xlink="http://www.w3.org/1999/xlink" x="0px" y="0px"
	 width="195.474px" height="158.477px" viewBox="0 0 195.474 158.477" enable-background="new 0 0 195.474 158.477"
	 xml:space="preserve">

<g id="mujeres">
	<g id="esther">
		<g>
			<defs>
				<path id="SVGID_1517_" d="M294.101,23.584l2.353-9.412l2.745,2.482l-0.13,12.026L294.101,23.584z M359.724,0.707l3.396,18.039
					l-6.405,7.19C353.972,17.44,359.724,0.707,359.724,0.707 M322.63-67.055l-4.844,21.524c0,0-18.563-2.825-30.672,12.242
					c-12.109,15.067-9.552,64.036-9.552,64.036s16.009,26.638,33.094,35.38l1.612,5.382c0,0-1.881,5.517-1.881,12.781
					s-0.135,19.103-0.135,19.103s7.129-1.884,10.224-11.838l4.305,6.86c0,0,0.538,7.13,2.153,7.264
					c1.615,0.137,7.532-7.128,10.626-18.833c0,0,9.687-8.205,7.266-23.407c0,0,25.692-15.74,35.111-33.229
					c0,0,4.441-35.247-5.785-59.059C363.927-52.66,343.48-48.085,343.48-48.085l0.94-24.62L322.63-67.055z"/>
			</defs>
			<clipPath id="SVGID_1_">
				<use xlink:href="#SVGID_1517_"  overflow="visible"/>
			</clipPath>
			
				<linearGradient id="SVGID_2_" gradientUnits="userSpaceOnUse" x1="-2360.3203" y1="527.6108" x2="-2359.6875" y2="527.6108" gradientTransform="matrix(78.3201 119.9175 119.9175 -78.3201 121898.5938 324349.4063)">
				<stop  offset="0" style="stop-color:#FFD094"/>
				<stop  offset="1" style="stop-color:#FAC387"/>
			</linearGradient>
			<polygon clip-path="url(#SVGID_1_)" fill="url(#SVGID_2_)" points="351.674,-122.778 466.108,52.437 307.709,155.891 
				193.274,-19.324 			"/>
		</g>
	</g>
	<g id="logo_id_mujeres">
		<g>
			<path fill="#FF2B78" d="M63.531,125.811c-0.421,0-0.852-0.012-1.295-0.035l-4.067-0.232l0.461-8.134l4.068,0.23
				c4.01,0.223,6.049-1.087,8.222-3.433l2.277-1.245l0.46-0.08c1.232-0.218,2.208-0.411,2.978-0.601
				c-7.104-3.667-14.085-8.403-17.217-17.222l-1.363-3.84l7.678-2.727l1.364,3.839c2.742,7.724,10.174,11.283,18.042,15.05
				l2.276,4.228c-0.939,6.856-7.022,8.333-11.501,9.145C73.3,123.309,69.562,125.811,63.531,125.811z M90.392,84.076
				c-4.209,0-7.488-0.908-10.443-1.727l-0.416-0.114l-2.097-2.327l-1.182,0.174c-5.712-2.441-12.83-6.125-17.22-12.996l2.76-6.211
				c2.295-0.385,4.157-1.774,5.637-3.518l-1.613-1.286l2.538-3.186c0.277-0.349,0.618-1.018,0.948-1.664
				c0.958-1.881,2.269-4.455,5.154-5.532l5.335,4.96c-2.163,7.394-5.882,12.901-10.589,15.905c1.826,1.632,4.125,3.116,7.054,4.568
				c0.694-1.205,1.771-2.564,3.643-3.309l5.356,3.121C83.98,64.34,83.941,56.9,83.904,49.613
				c-0.029-5.656-0.057-10.999-0.626-15.804C81.369,17.691,73.614,9.074,60.229,8.198c-3.537-0.23-6.871,0.312-10.504,1.71
				l-2.649,0.096c-8.435-2.568-15.988-1.835-21.849,2.122c-6.47,4.368-10.688,12.658-11.57,22.743l-0.356,4.058l-8.116-0.71
				l0.355-4.06c1.115-12.728,6.487-22.95,15.128-28.784c7.639-5.157,17.104-6.376,27.449-3.549c4.245-1.46,8.395-2.033,12.644-1.757
				C78.13,1.204,89,12.847,91.369,32.852c0.624,5.262,0.653,11.086,0.683,16.72c0.056,10.687,0.112,21.737,4.219,28.106
				l-3.043,6.265C92.235,84.034,91.292,84.076,90.392,84.076z M85.128,75.285c0.428,0.099,0.856,0.189,1.29,0.27
				c-0.337-1.059-0.628-2.148-0.879-3.267C85.562,73.508,85.355,74.496,85.128,75.285z"/>
		</g>
		<g>
			<path fill="#FF2B78" d="M119.651,6.832H0v151.645h119.651c41.877,0,75.822-33.947,75.822-75.822
				C195.474,40.779,161.528,6.832,119.651,6.832z"/>
		</g>
		<g>
			<path fill="#662D91" d="M116.954,16.163H70.227v132.984h46.728c36.724,0,66.491-29.77,66.491-66.492
				C183.445,45.933,153.678,16.163,116.954,16.163z"/>
		</g>
		<g>
			<rect x="10.122" y="16.163" fill-rule="evenodd" clip-rule="evenodd" fill="#662D91" width="42.788" height="131.029"/>
		</g>
		<g>
			<g>
				<path fill-rule="evenodd" clip-rule="evenodd" fill="#FFFFFF" d="M153.319,79.531c-0.816-4.238,0.849-8.708,0.33-12.521
					c-1.735-12.775-12.205-22.037-26.028-21.414c-9.98,0.449-18.387,7.206-21.744,14.826c-0.981,2.225-3.469,9.542,0.329,9.554
					c2.646,0.008,2.66-4.847,3.624-7.247c2.53-6.306,9.501-12.186,18.122-12.521c12.365-0.479,21.187,8.147,21.414,20.428
					c0.125,6.704-2.566,16.998,5.931,14.826C156.756,81.663,153.868,82.372,153.319,79.531z M113.454,62.729
					c-1.677,3.406-1.914,9.221-4.941,10.542c-1.738,0.758-5.346-0.567-5.931,1.976c-1.137,4.946,8.205,2.266,9.554,1.319
					c3.418-2.398,3.354-7.976,5.271-11.86c5.565-11.27,23.544-7.95,24.381,5.93c0.206,3.419-0.759,6.283-0.658,9.554
					c0.201,6.541,3.074,9.966,8.236,12.191c0.843,0.362,5.956,3.162,5.602-1.317c-0.189-2.386-4.654-2.676-6.26-3.954
					c-5.119-4.074-1.396-12.775-2.637-19.769c-1.521-8.573-9.983-15.093-19.438-13.837C120.102,54.37,116.018,57.522,113.454,62.729
					z M129.928,68.328c-1.121-0.022-2.299-0.102-2.636,0.66c-1.141,3.355-1.203,6.313-2.636,9.224
					c-2.445,4.97-7.167,7.802-13.838,9.556c-2.622,0.689-10.048,0.922-7.906,4.942c3.205,1.645,7.388-0.074,10.542-0.989
					c10.444-3.031,18.299-9.935,17.462-22.404C130.441,69.132,130.112,68.803,129.928,68.328z M145.412,94.355
					c-2.813-1.303-5.252-5.303-7.577-4.941c-1.45,0.227-2.004,1.955-1.977,2.637c0.09,2.279,4.709,5.045,7.248,6.26
					c3.19,1.525,7.088,3.218,10.213,1.977C155.032,95.732,149.335,96.172,145.412,94.355z M144.754,102.264
					c-2.749-1.089-5.459-3.12-7.578-3.953c-6.237-2.451-12.745,1.325-18.45,2.965c-3.333,0.959-12.871,1.663-12.52,4.942
					c0.41,3.815,10.851,0.34,13.18-0.33c4.608-1.327,9.313-4.177,13.507-3.954c7.216,0.384,11.13,8.89,18.45,5.272
					C152.56,103.727,147.741,103.447,144.754,102.264z M119.715,108.193c-1.13,0.324-9.636,1.599-9.226,4.614
					c0.463,3.401,6.931,0.914,10.214,0c3.554-0.991,7.89-3.16,11.531-2.967c2.006,0.106,4.776,1.613,7.906,2.967
					c2.231,0.964,6.797,3.563,6.92-0.33c0.09-2.885-12.657-7.202-16.145-6.92C126.791,105.892,124.229,106.899,119.715,108.193z
					 M132.234,113.136c-6.075-0.471-18.168,2.864-15.156,6.259c4.874,1.891,9.801-2.027,14.827-1.646
					c3.008,0.228,4.703,2.462,7.906,2.306C143.871,116.661,137.157,113.518,132.234,113.136z"/>
			</g>
			<g>
				<path fill-rule="evenodd" clip-rule="evenodd" fill="#FFFFFF" d="M155.297,85.461c-8.497,2.172-5.806-8.122-5.931-14.826
					c-0.228-12.28-9.049-20.907-21.414-20.428c-8.621,0.336-15.592,6.216-18.122,12.521c-0.964,2.4-0.979,7.255-3.624,7.247
					c-3.798-0.012-1.311-7.329-0.329-9.554c3.357-7.62,11.764-14.377,21.744-14.826c13.823-0.623,24.293,8.639,26.028,21.414
					c0.519,3.813-1.146,8.283-0.33,12.521C153.868,82.372,156.756,81.663,155.297,85.461z"/>
			</g>
			<g>
				<path fill-rule="evenodd" clip-rule="evenodd" fill="#FFFFFF" d="M126.634,53.503c9.454-1.256,17.916,5.264,19.438,13.837
					c1.241,6.993-2.482,15.694,2.637,19.769c1.605,1.278,6.07,1.568,6.26,3.954c0.354,4.479-4.759,1.68-5.602,1.317
					c-5.162-2.226-8.035-5.65-8.236-12.191c-0.101-3.271,0.864-6.135,0.658-9.554c-0.837-13.88-18.815-17.199-24.381-5.93
					c-1.918,3.885-1.854,9.462-5.271,11.86c-1.349,0.946-10.69,3.627-9.554-1.319c0.585-2.543,4.192-1.218,5.931-1.976
					c3.027-1.321,3.265-7.136,4.941-10.542C116.018,57.522,120.102,54.37,126.634,53.503z"/>
			</g>
			<g>
				<path fill-rule="evenodd" clip-rule="evenodd" fill="#FFFFFF" d="M101.923,84.473c0-0.55,0-1.099,0-1.647
					c1.787-1.808,9.051-1.715,11.861-3.624c4.014-2.73,4.22-8.921,6.26-13.179c1.654-3.455,5.581-5.968,10.543-5.272
					c12.181,1.71,8.057,19.296,3.953,26.028c-5.134,8.423-13.385,10.539-22.404,12.85c-3.736,0.958-8.285,2.514-8.236-0.988
					c0.036-2.521,5.576-3.102,8.896-3.953c9.181-2.355,14.383-4.374,18.449-12.191c2.263-4.347,5.817-16.083-1.317-17.131
					c-6.295-0.927-5.684,4.966-7.248,9.224c-2.46,6.697-10.609,12.445-17.792,11.532C104.202,86.032,102.997,86.229,101.923,84.473z
					"/>
			</g>
			<g>
				<path fill-rule="evenodd" clip-rule="evenodd" fill="#FFFFFF" d="M130.916,69.316c0.837,12.47-7.018,19.373-17.462,22.404
					c-3.154,0.915-7.337,2.634-10.542,0.989c-2.142-4.021,5.284-4.253,7.906-4.942c6.671-1.754,11.393-4.586,13.838-9.556
					c1.433-2.911,1.495-5.868,2.636-9.224c0.337-0.762,1.515-0.683,2.636-0.66C130.112,68.803,130.441,69.132,130.916,69.316z"/>
			</g>
			<g>
				<path fill-rule="evenodd" clip-rule="evenodd" fill="#FFFFFF" d="M153.319,100.287c-3.125,1.241-7.022-0.451-10.213-1.977
					c-2.539-1.215-7.158-3.98-7.248-6.26c-0.027-0.682,0.526-2.41,1.977-2.637c2.325-0.361,4.764,3.639,7.577,4.941
					C149.335,96.172,155.032,95.732,153.319,100.287z"/>
			</g>
			<g>
				<path fill-rule="evenodd" clip-rule="evenodd" fill="#FFFFFF" d="M151.343,107.206c-7.32,3.617-11.234-4.889-18.45-5.272
					c-4.193-0.223-8.898,2.627-13.507,3.954c-2.329,0.67-12.77,4.146-13.18,0.33c-0.352-3.279,9.187-3.983,12.52-4.942
					c5.705-1.64,12.213-5.416,18.45-2.965c2.119,0.833,4.829,2.864,7.578,3.953C147.741,103.447,152.56,103.727,151.343,107.206z"/>
			</g>
			<g>
				<path fill-rule="evenodd" clip-rule="evenodd" fill="#FFFFFF" d="M130.916,105.558c3.487-0.282,16.234,4.035,16.145,6.92
					c-0.123,3.893-4.688,1.294-6.92,0.33c-3.13-1.354-5.9-2.86-7.906-2.967c-3.642-0.193-7.978,1.976-11.531,2.967
					c-3.283,0.914-9.751,3.401-10.214,0c-0.41-3.016,8.096-4.29,9.226-4.614C124.229,106.899,126.791,105.892,130.916,105.558z"/>
			</g>
			<g>
				<path fill-rule="evenodd" clip-rule="evenodd" fill="#FFFFFF" d="M139.812,120.055c-3.203,0.156-4.898-2.079-7.906-2.306
					c-5.026-0.381-9.953,3.537-14.827,1.646c-3.012-3.395,9.081-6.73,15.156-6.259C137.157,113.518,143.871,116.661,139.812,120.055
					z"/>
			</g>
		</g>
		<g>
			<path fill-rule="evenodd" clip-rule="evenodd" fill="#FFFFFF" d="M92.847,79.886c-5.075,0.476-8.623-0.582-12.23-1.578
				c-0.502-3.001,1.19-3.808,0.789-6.708c-1.976,0.786-2.045,3.479-3.551,4.736c-6.266-2.679-11.9-5.985-15.388-11.443
				c6.898-1.156,11.297-8.144,13.416-15.387c-2.175,0.812-2.842,4.037-4.341,5.918c-4.154,5.214-10.906,8.578-19.332,9.469
				c-1.216,4.768,4.647,2.455,4.338,6.313c10.362-0.085,14.996,15.629,6.709,22.49c3.273,9.219,11.673,13.315,20.122,17.36
				c-0.618,4.512-5.112,5.145-9.47,5.918c-2.593,2.8-5.727,5.056-11.442,4.734c-1.958,3.566-2.712,8.334-4.34,12.232
				c3.896,2.543,11.365,3.764,10.653,9.863c-0.873,7.488-18.85,7.908-18.938-1.58c-2.092,1.402-1.528,3.229-3.156,4.738
				c-4.979,4.611-16.376,2.162-16.966-3.158c-0.641-5.779,6.361-7.543,10.652-9.469c-1.114-4.412-2.682-8.367-3.944-12.627
				c-6.373,0.322-10.877-1.221-13.021-5.128c-3.754,0.296-9.069-1.159-9.469-5.523c3.243-2.257,9.421-3.941,13.809-7.496
				c2.267-1.837,6.207-6.423,6.313-8.68c0.162-3.416-3.681-5.985-4.735-9.472c-0.259-8.021,4.835-12.786,10.26-13.809
				c0.979-2.309,3.326-3.249,5.523-4.338c0.47-2.972-2.001-2.998-4.339-3.158c-8.14-3.172-14.487-8.134-18.938-14.992
				c-0.592,4.145,4.293,10.863,8.284,13.414c1.301,0.83,2.968,1.17,4.34,1.578c-3.378,5.696-9.166,8.982-14.993,12.232
				c-1.816-1.078-1.837-3.95-3.55-5.131c-1.271,2.201,1.081,4.172,0.789,6.708c-3.319,1.545-7.36,2.371-12.626,1.973
				c7.122-11.7,4.239-30.714,5.524-45.373C11.436,13.546,26.196-0.614,48.263,6.105c3.607-1.388,7.59-2.276,12.232-1.973
				C77.888,5.271,85.466,17.639,87.324,33.33C89.126,48.539,85.746,68.874,92.847,79.886z M49.842,138.672
				c2.857-3.656,0.448-8.666,0.395-13.809c-0.657,0-1.315,0-1.974,0C48.627,130.2,44.876,136.497,49.842,138.672z"/>
		</g>
	</g>
</g>
</svg>
