<!DOCTYPE svg PUBLIC "-//W3C//DTD SVG 1.1//EN" "http://www.w3.org/Graphics/SVG/1.1/DTD/svg11.dtd">
<svg version="1.1" xmlns="http://www.w3.org/2000/svg" xmlns:xlink="http://www.w3.org/1999/xlink" x="0px" y="0px"
	 width="256.258px" height="231.506px" viewBox="0 0 256.258 231.506" enable-background="new 0 0 256.258 231.506"
	 xml:space="preserve">

<g id="soil">
	<g>
		<g>
			<defs>
				<path id="SVGID_4746_" d="M0,74.189v151.955c0,2.961,2.401,5.361,5.362,5.361h245.533c2.962,0,5.362-2.4,5.362-5.361V74.189H0z"
					/>
			</defs>
			<clipPath id="SVGID_1_">
				<use xlink:href="#SVGID_4746_"  overflow="visible"/>
			</clipPath>
			<path clip-path="url(#SVGID_1_)" fill="#FFE506" d="M0,74.189v151.955c0,2.961,2.401,5.361,5.362,5.361h245.533
				c2.962,0,5.362-2.4,5.362-5.361V74.189H0z"/>
			<g clip-path="url(#SVGID_1_)">
				<g>
					<g>
						
							<rect x="25.985" y="20.398" transform="matrix(0.7071 -0.7071 0.7071 0.7071 -116.9771 72.5289)" fill="#FFCE00" width="6.154" height="314.14"/>
					</g>
					<g>
						
							<rect x="9.277" y="20.399" transform="matrix(0.7071 -0.7071 0.7071 0.7071 -121.8706 60.7149)" fill="#FFCE00" width="6.154" height="314.139"/>
					</g>
					<g>
						
							<rect x="-7.432" y="20.398" transform="matrix(0.7071 -0.7071 0.7071 0.7071 -126.7644 48.9002)" fill="#FFCE00" width="6.154" height="314.14"/>
					</g>
					<g>
						
							<rect x="-24.14" y="20.398" transform="matrix(0.7071 -0.7071 0.7071 0.7071 -131.6581 37.0858)" fill="#FFCE00" width="6.154" height="314.14"/>
					</g>
					<g>
						
							<rect x="-40.847" y="20.398" transform="matrix(0.7072 -0.707 0.707 0.7072 -136.5345 25.2607)" fill="#FFCE00" width="6.155" height="314.14"/>
					</g>
					<g>
						
							<rect x="-57.555" y="20.399" transform="matrix(0.7071 -0.7071 0.7071 0.7071 -141.4453 13.4575)" fill="#FFCE00" width="6.154" height="314.139"/>
					</g>
					<g>
						
							<rect x="42.693" y="20.399" transform="matrix(0.7072 -0.707 0.707 0.7072 -112.0727 84.3262)" fill="#FFCE00" width="6.155" height="314.139"/>
					</g>
					<g>
						
							<rect x="59.401" y="20.399" transform="matrix(0.7071 -0.7071 0.7071 0.7071 -107.1896 96.1579)" fill="#FFCE00" width="6.154" height="314.139"/>
					</g>
					<g>
						
							<rect x="76.109" y="20.398" transform="matrix(0.707 -0.7072 0.7072 0.707 -102.3038 107.9926)" fill="#FFCE00" width="6.153" height="314.14"/>
					</g>
					<g>
						
							<rect x="92.817" y="20.398" transform="matrix(0.7072 -0.707 0.707 0.7072 -97.3958 119.7649)" fill="#FFCE00" width="6.155" height="314.14"/>
					</g>
					<g>
						
							<rect x="109.525" y="20.399" transform="matrix(0.7071 -0.7071 0.7071 0.7071 -92.5086 131.6009)" fill="#FFCE00" width="6.154" height="314.139"/>
					</g>
					<g>
						
							<rect x="126.233" y="20.398" transform="matrix(0.7071 -0.7071 0.7071 0.7071 -87.6151 143.4149)" fill="#FFCE00" width="6.154" height="314.14"/>
					</g>
					<g>
						
							<rect x="142.941" y="20.398" transform="matrix(0.7072 -0.707 0.707 0.7072 -82.7188 155.2039)" fill="#FFCE00" width="6.155" height="314.14"/>
					</g>
					<g>
						
							<rect x="159.649" y="20.399" transform="matrix(0.7072 -0.707 0.707 0.7072 -77.8263 167.0173)" fill="#FFCE00" width="6.155" height="314.139"/>
					</g>
					<g>
						
							<rect x="176.357" y="20.398" transform="matrix(0.707 -0.7072 0.7072 0.707 -72.9338 178.8866)" fill="#FFCE00" width="6.153" height="314.14"/>
					</g>
					<g>
						
							<rect x="193.065" y="20.398" transform="matrix(0.7069 -0.7073 0.7073 0.7069 -68.0375 190.7316)" fill="#FFCE00" width="6.153" height="314.14"/>
					</g>
					<g>
						
							<rect x="209.773" y="20.399" transform="matrix(0.7072 -0.707 0.707 0.7072 -63.1493 202.4564)" fill="#FFCE00" width="6.155" height="314.139"/>
					</g>
					<g>
						
							<rect x="226.481" y="20.399" transform="matrix(0.7071 -0.7071 0.7071 0.7071 -58.253 214.3013)" fill="#FFCE00" width="6.154" height="314.139"/>
					</g>
					<g>
						
							<rect x="243.189" y="20.398" transform="matrix(0.707 -0.7072 0.7072 0.707 -53.354 226.149)" fill="#FFCE00" width="6.153" height="314.14"/>
					</g>
					<g>
						
							<rect x="259.897" y="20.398" transform="matrix(0.7072 -0.707 0.707 0.7072 -48.4724 237.8951)" fill="#FFCE00" width="6.155" height="314.14"/>
					</g>
					<g>
						
							<rect x="276.605" y="20.399" transform="matrix(0.7072 -0.707 0.707 0.7072 -43.58 249.7085)" fill="#FFCE00" width="6.155" height="314.139"/>
					</g>
					<g>
						
							<rect x="293.313" y="20.398" transform="matrix(0.707 -0.7072 0.7072 0.707 -38.6689 261.5963)" fill="#FFCE00" width="6.153" height="314.14"/>
					</g>
					<g>
						
							<rect x="310.021" y="20.398" transform="matrix(0.7069 -0.7073 0.7073 0.7069 -33.7633 273.4506)" fill="#FFCE00" width="6.153" height="314.14"/>
					</g>
					<g>
						
							<rect x="326.729" y="20.399" transform="matrix(0.7071 -0.7071 0.7071 0.7071 -28.891 285.1874)" fill="#FFCE00" width="6.154" height="314.139"/>
					</g>
					<g>
						
							<rect x="343.436" y="20.399" transform="matrix(0.7072 -0.707 0.707 0.7072 -24.0109 296.9598)" fill="#FFCE00" width="6.155" height="314.139"/>
					</g>
					<g>
						
							<rect x="359.908" y="20.398" transform="matrix(0.707 -0.7072 0.7072 0.707 -19.1585 308.6912)" fill="#FFCE00" width="6.153" height="314.14"/>
					</g>
				</g>
			</g>
		</g>
		<g>
			<defs>
				<path id="SVGID_4748_" d="M250.896,0H5.362C2.401,0,0,2.401,0,5.363v73.464h0.018c0.357,7.544,6.586,13.549,14.22,13.549
					c7.631,0,13.858-6.005,14.217-13.549h0.035c0.358,7.544,6.587,13.549,14.22,13.549c7.632,0,13.86-6.005,14.22-13.549h0.034
					c0.359,7.544,6.585,13.549,14.22,13.549c7.633,0,13.86-6.005,14.218-13.549h0.035c0.359,7.544,6.588,13.549,14.221,13.549
					c7.631,0,13.859-6.005,14.22-13.549h0.035c0.357,7.544,6.585,13.549,14.218,13.549c7.632,0,13.859-6.005,14.218-13.549h0.035
					c0.36,7.544,6.587,13.549,14.22,13.549s13.86-6.005,14.219-13.549h0.035c0.359,7.544,6.588,13.549,14.219,13.549
					c7.632,0,13.86-6.005,14.221-13.549h0.035c0.357,7.544,6.585,13.549,14.219,13.549c7.632,0,13.859-6.005,14.219-13.549h0.035
					c0.357,7.544,6.585,13.549,14.218,13.549s13.862-6.005,14.22-13.549h0.018V5.363C256.258,2.401,253.856,0,250.896,0z"/>
			</defs>
			<clipPath id="SVGID_2_">
				<use xlink:href="#SVGID_4748_"  overflow="visible"/>
			</clipPath>
			<path clip-path="url(#SVGID_2_)" fill="#3A8708" d="M250.896,0H5.362C2.401,0,0,2.401,0,5.363v73.464h0.018
				c0.357,7.544,6.586,13.549,14.22,13.549c7.631,0,13.858-6.005,14.217-13.549h0.035c0.358,7.544,6.587,13.549,14.22,13.549
				c7.632,0,13.86-6.005,14.22-13.549h0.034c0.359,7.544,6.585,13.549,14.22,13.549c7.633,0,13.86-6.005,14.218-13.549h0.035
				c0.359,7.544,6.588,13.549,14.221,13.549c7.631,0,13.859-6.005,14.22-13.549h0.035c0.357,7.544,6.585,13.549,14.218,13.549
				c7.632,0,13.859-6.005,14.218-13.549h0.035c0.36,7.544,6.587,13.549,14.22,13.549s13.86-6.005,14.219-13.549h0.035
				c0.359,7.544,6.588,13.549,14.219,13.549c7.632,0,13.86-6.005,14.221-13.549h0.035c0.357,7.544,6.585,13.549,14.219,13.549
				c7.632,0,13.859-6.005,14.219-13.549h0.035c0.357,7.544,6.585,13.549,14.218,13.549s13.862-6.005,14.22-13.549h0.018V5.363
				C256.258,2.401,253.856,0,250.896,0z"/>
			<g clip-path="url(#SVGID_2_)">
				<g>
					<g>
						
							<rect x="25.985" y="-54.238" transform="matrix(0.7071 -0.7071 0.7071 0.7071 -64.2013 50.6684)" fill="#276103" width="6.154" height="314.139"/>
					</g>
					<g>
						
							<rect x="9.277" y="-54.237" transform="matrix(0.7071 -0.7071 0.7071 0.7071 -69.0948 38.8544)" fill="#276103" width="6.154" height="314.138"/>
					</g>
					<g>
						
							<rect x="-7.432" y="-54.238" transform="matrix(0.7071 -0.7071 0.7071 0.7071 -73.9886 27.0397)" fill="#276103" width="6.154" height="314.139"/>
					</g>
					<g>
						
							<rect x="-24.14" y="-54.238" transform="matrix(0.7071 -0.7071 0.7071 0.7071 -78.8823 15.2254)" fill="#276103" width="6.154" height="314.139"/>
					</g>
					<g>
						
							<rect x="-40.847" y="-54.238" transform="matrix(0.7072 -0.707 0.707 0.7072 -83.7646 3.4062)" fill="#276103" width="6.155" height="314.139"/>
					</g>
					<g>
						
							<rect x="-57.555" y="-54.237" transform="matrix(0.7071 -0.7071 0.7071 0.7071 -88.6695 -8.403)" fill="#276103" width="6.154" height="314.138"/>
					</g>
					<g>
						
							<rect x="42.693" y="-54.237" transform="matrix(0.7072 -0.707 0.707 0.7072 -59.3028 62.4717)" fill="#276103" width="6.155" height="314.138"/>
					</g>
					<g>
						
							<rect x="59.401" y="-54.237" transform="matrix(0.7071 -0.7071 0.7071 0.7071 -54.4138 74.2974)" fill="#276103" width="6.154" height="314.138"/>
					</g>
					<g>
						
							<rect x="76.109" y="-54.238" transform="matrix(0.707 -0.7072 0.7072 0.707 -49.522 86.1262)" fill="#276103" width="6.153" height="314.139"/>
					</g>
					<g>
						
							<rect x="92.817" y="-54.238" transform="matrix(0.7072 -0.707 0.707 0.7072 -44.626 97.9104)" fill="#276103" width="6.155" height="314.139"/>
					</g>
					<g>
						
							<rect x="109.525" y="-54.237" transform="matrix(0.7071 -0.7071 0.7071 0.7071 -39.7328 109.7405)" fill="#276103" width="6.154" height="314.138"/>
					</g>
					<g>
						
							<rect x="126.233" y="-54.238" transform="matrix(0.7071 -0.7071 0.7071 0.7071 -34.8393 121.5545)" fill="#276103" width="6.154" height="314.139"/>
					</g>
					<g>
						
							<rect x="142.941" y="-54.238" transform="matrix(0.7072 -0.707 0.707 0.7072 -29.9489 133.3494)" fill="#276103" width="6.155" height="314.139"/>
					</g>
					<g>
						
							<rect x="159.649" y="-54.237" transform="matrix(0.7072 -0.707 0.707 0.7072 -25.0565 145.1628)" fill="#276103" width="6.155" height="314.138"/>
					</g>
					<g>
						
							<rect x="176.357" y="-54.238" transform="matrix(0.707 -0.7072 0.7072 0.707 -20.1521 157.0202)" fill="#276103" width="6.153" height="314.139"/>
					</g>
					<g>
						
							<rect x="193.065" y="-54.238" transform="matrix(0.7069 -0.7073 0.7073 0.7069 -15.2499 168.8593)" fill="#276103" width="6.153" height="314.139"/>
					</g>
					<g>
						
							<rect x="209.773" y="-54.237" transform="matrix(0.7072 -0.707 0.707 0.7072 -10.3795 180.6019)" fill="#276103" width="6.155" height="314.138"/>
					</g>
					<g>
						
							<rect x="226.481" y="-54.237" transform="matrix(0.7071 -0.7071 0.7071 0.7071 -5.4772 192.4409)" fill="#276103" width="6.154" height="314.138"/>
					</g>
					<g>
						
							<rect x="243.189" y="-54.238" transform="matrix(0.707 -0.7072 0.7072 0.707 -0.5723 204.2826)" fill="#276103" width="6.153" height="314.14"/>
					</g>
					<g>
						
							<rect x="259.897" y="-54.238" transform="matrix(0.7072 -0.707 0.707 0.7072 4.2974 216.0406)" fill="#276103" width="6.155" height="314.139"/>
					</g>
					<g>
						
							<rect x="276.605" y="-54.237" transform="matrix(0.7072 -0.707 0.707 0.7072 9.1899 227.8539)" fill="#276103" width="6.155" height="314.138"/>
					</g>
					<g>
						
							<rect x="293.313" y="-54.238" transform="matrix(0.707 -0.7072 0.7072 0.707 14.1128 239.7299)" fill="#276103" width="6.153" height="314.139"/>
					</g>
					<g>
						
							<rect x="310.021" y="-54.238" transform="matrix(0.7069 -0.7073 0.7073 0.7069 19.0243 251.5783)" fill="#276103" width="6.153" height="314.139"/>
					</g>
					<g>
						
							<rect x="326.729" y="-54.237" transform="matrix(0.7071 -0.7071 0.7071 0.7071 23.8848 263.327)" fill="#276103" width="6.154" height="314.138"/>
					</g>
					<g>
						
							<rect x="343.436" y="-54.237" transform="matrix(0.7072 -0.707 0.707 0.7072 28.7589 275.1053)" fill="#276103" width="6.155" height="314.138"/>
					</g>
					<g>
						
							<rect x="359.908" y="-54.238" transform="matrix(0.707 -0.7072 0.7072 0.707 33.6232 286.8248)" fill="#276103" width="6.153" height="314.139"/>
					</g>
				</g>
			</g>
			<path clip-path="url(#SVGID_2_)" fill="#FFFFFF" d="M249.522,2.086H6.749c-2.943,0-5.33,2.401-5.33,5.363v2.569
				c0,0.02,0.003,0.037,0.003,0.057c0.029-2.937,2.402-5.309,5.327-5.309h242.773c2.925,0,5.297,2.372,5.328,5.309
				c0-0.02,0.002-0.037,0.002-0.057V7.449C254.853,4.487,252.467,2.086,249.522,2.086z"/>
		</g>
	</g>
</g>
</svg>